<svg width="21" height="21" viewBox="0 0 21 21" fill="none" xmlns="http://www.w3.org/2000/svg">
<path d="M20.937 6.17085C20.9196 5.2999 20.7545 4.43821 20.4487 3.6225C20.1848 2.92187 19.7717 2.287 19.238 1.7619C18.714 1.22787 18.0797 0.814695 17.3794 0.55125C16.5633 0.245559 15.7012 0.0808121 14.8299 0.0640501C13.7105 0.0126001 13.3525 0 10.5005 0C7.64858 0 7.29051 0.0115499 6.17116 0.0629999C5.29981 0.0803012 4.43772 0.245397 3.62163 0.55125C2.92152 0.815028 2.28728 1.22816 1.76304 1.7619C1.22776 2.28611 0.813787 2.92119 0.550228 3.6225C0.244834 4.43828 0.0800878 5.29996 0.0630033 6.17085C0.0105007 7.29015 0 7.6482 0 10.5C0 13.3518 0.0105007 13.7098 0.0630033 14.8291C0.080108 15.7 0.244854 16.5617 0.550228 17.3775C0.81354 18.0787 1.22714 18.7137 1.76199 19.2381C2.28679 19.7717 2.92133 20.1847 3.62163 20.4487C4.43781 20.7541 5.29988 20.9189 6.17116 20.9359C7.29051 20.9874 7.64858 21 10.4995 21C13.3504 21 13.7095 20.9884 14.8288 20.937C15.6998 20.9196 16.5616 20.7545 17.3773 20.4487C18.075 20.179 18.7086 19.7665 19.2375 19.2376C19.7664 18.7087 20.179 18.0751 20.4487 17.3775C20.7548 16.5619 20.9199 15.7001 20.937 14.8291C20.9874 13.7088 21 13.3518 21 10.5C21 7.6482 20.9874 7.29015 20.937 6.17085ZM19.0469 14.743C19.0391 15.4088 18.9173 16.0683 18.6867 16.6929C18.5121 17.1458 18.2445 17.5571 17.9013 17.9004C17.558 18.2436 17.1467 18.5112 16.6937 18.6858C16.0693 18.9173 15.4097 19.0395 14.7438 19.047C13.636 19.0974 13.3042 19.1079 10.4995 19.1079C7.69479 19.1079 7.36402 19.0974 6.25726 19.047C5.59137 19.0394 4.93176 18.9172 4.30732 18.6858C3.85132 18.5172 3.43875 18.2489 3.09976 17.9004C2.75063 17.5619 2.48218 17.1492 2.31432 16.6929C2.08281 16.0685 1.96061 15.4089 1.9531 14.743C1.9027 13.6363 1.89219 13.3046 1.89219 10.501C1.89219 7.69755 1.9027 7.3647 1.9531 6.25695C1.96149 5.59116 2.08365 4.93171 2.31432 4.3071C2.48288 3.85111 2.75124 3.43855 3.09976 3.0996C3.43815 2.75041 3.8509 2.48196 4.30732 2.3142C4.93174 2.08274 5.59136 1.96056 6.25726 1.953C7.36402 1.9005 7.69689 1.89 10.4995 1.89C13.3021 1.89 13.636 1.90155 14.7438 1.95195C15.4096 1.96036 16.0691 2.08252 16.6937 2.31315C17.1467 2.48774 17.5581 2.75528 17.9013 3.09852C18.2446 3.44177 18.5121 3.85311 18.6867 4.30605C18.9182 4.93044 19.0404 5.59003 19.048 6.2559C19.0984 7.36365 19.1089 7.6944 19.1089 10.4989C19.1089 13.3035 19.0984 13.6343 19.048 14.742L19.0469 14.743Z" fill="#198E95"/>
</svg>
