<svg width="35" height="35" viewBox="0 0 35 35" fill="none" xmlns="http://www.w3.org/2000/svg">
<path fill-rule="evenodd" clip-rule="evenodd" d="M34.0812 6.0375C34.5908 7.39702 34.866 8.83316 34.895 10.2847C34.979 12.1502 35 12.747 35 17.5C35 22.253 34.979 22.848 34.895 24.7152C34.8665 26.1669 34.5914 27.6031 34.0812 28.9625C33.6316 30.1252 32.944 31.1812 32.0625 32.0626C31.181 32.9441 30.125 33.6317 28.9622 34.0812C27.6026 34.5908 26.1664 34.866 24.7147 34.895C22.8491 34.9808 22.2506 35 17.4991 35C12.7476 35 12.1509 34.979 10.2853 34.8932C8.83313 34.8648 7.39635 34.5902 6.03605 34.0812C4.86888 33.6412 3.81132 32.9528 2.93665 32.0635C2.04523 31.1896 1.3559 30.1311 0.917046 28.9625C0.40809 27.6029 0.133513 26.1667 0.105006 24.7152C0.0175012 22.8497 0 22.253 0 17.5C0 12.747 0.0175012 12.1502 0.105006 10.2847C0.13348 8.83326 0.408057 7.39713 0.917046 6.0375C1.35631 4.86865 2.04626 3.81018 2.9384 2.9365C3.81214 2.04693 4.8692 1.35838 6.03605 0.91875C7.39619 0.408995 8.83301 0.133835 10.2853 0.105C12.1509 0.0192499 12.7476 0 17.5009 0C22.2541 0 22.8509 0.0210002 24.7165 0.10675C26.1687 0.134687 27.6055 0.409265 28.9657 0.91875C30.1328 1.35783 31.19 2.04645 32.0634 2.9365C32.9528 3.81167 33.6414 4.86978 34.0812 6.0375ZM31.1446 27.8215C31.5289 26.7805 31.7319 25.6813 31.7448 24.5718L31.7466 24.57C31.8306 22.7238 31.8481 22.1725 31.8481 17.4982C31.8481 12.824 31.8306 12.2727 31.7466 10.4265C31.734 9.31672 31.5303 8.2174 31.1446 7.17675C30.8536 6.42185 30.4076 5.73628 29.8355 5.1642C29.2634 4.59213 28.5778 4.14623 27.8229 3.85525C26.7818 3.47086 25.6827 3.26726 24.573 3.25325C22.7266 3.16925 22.1701 3.15 17.4991 3.15C12.8281 3.15 12.2734 3.1675 10.4288 3.255C9.31894 3.2676 8.21956 3.47124 7.17886 3.857C6.41816 4.13659 5.73026 4.58401 5.16626 5.166C4.5854 5.73092 4.13814 6.41851 3.85719 7.1785C3.47275 8.21952 3.26914 9.31861 3.25516 10.4283C3.17116 12.2745 3.15366 12.8293 3.15366 17.5018C3.15366 22.1743 3.17116 22.7273 3.25516 24.5718C3.26769 25.6815 3.47134 26.7809 3.85719 27.8215C4.13696 28.5821 4.58438 29.2699 5.16626 29.834C5.73125 30.4148 6.41886 30.862 7.17886 31.143C8.21959 31.5287 9.31895 31.7323 10.4288 31.745C12.2734 31.829 12.8246 31.8465 17.4991 31.8465C22.1736 31.8465 22.7266 31.829 24.573 31.745C25.6828 31.7324 26.7822 31.5288 27.8229 31.143C28.5778 30.8519 29.2633 30.406 29.8354 29.8339C30.4075 29.2619 30.8535 28.5763 31.1446 27.8215ZM12.4437 9.93369C13.9402 8.93378 15.6996 8.40009 17.4994 8.40009C19.9129 8.40009 22.2275 9.35882 23.9341 11.0654C25.6407 12.7719 26.5994 15.0865 26.5994 17.5C26.5994 19.2998 26.0657 21.0591 25.0658 22.5556C24.0659 24.0521 22.6446 25.2184 20.9818 25.9072C19.319 26.5959 17.4893 26.7761 15.7241 26.425C13.9589 26.0739 12.3374 25.2072 11.0647 23.9345C9.79209 22.6619 8.9254 21.0405 8.57427 19.2753C8.22315 17.5101 8.40336 15.6804 9.09211 14.0176C9.78087 12.3548 10.9472 10.9336 12.4437 9.93369ZM14.2169 22.4125C15.1885 23.0617 16.3309 23.4082 17.4994 23.4082C18.2754 23.4085 19.0438 23.2558 19.7607 22.959C20.4777 22.6621 21.1291 22.2269 21.6778 21.6783C22.2265 21.1296 22.6617 20.4782 22.9585 19.7612C23.2553 19.0443 23.408 18.2759 23.4078 17.5C23.4078 16.3314 23.0612 15.1891 22.412 14.2175C21.7628 13.2459 20.8401 12.4886 19.7604 12.0414C18.6808 11.5942 17.4929 11.4772 16.3468 11.7052C15.2006 11.9332 14.1479 12.4959 13.3216 13.3222C12.4953 14.1485 11.9326 15.2012 11.7046 16.3473C11.4766 17.4934 11.5936 18.6814 12.0408 19.761C12.488 20.8406 13.2453 21.7633 14.2169 22.4125Z" fill="#198E95"/>
</svg>
