<svg width="32" height="40" viewBox="0 0 32 40" fill="none" xmlns="http://www.w3.org/2000/svg">
<path d="M32 35.3125C32 36.1755 31.3367 36.875 30.5185 36.875H29.037V38.4375C29.037 39.3005 28.3738 40 27.5556 40C26.7373 40 26.0741 39.3005 26.0741 38.4375V36.875H24.5926C23.7744 36.875 23.1111 36.1755 23.1111 35.3125C23.1111 34.4495 23.7744 33.75 24.5926 33.75H26.0741V32.1875C26.0741 31.3245 26.7373 30.625 27.5556 30.625C28.3738 30.625 29.037 31.3245 29.037 32.1875V33.75H30.5185C31.3367 33.75 32 34.4495 32 35.3125ZM32 10.9375V25.9375C32 26.8005 31.3367 27.5 30.5185 27.5C29.7003 27.5 29.037 26.8005 29.037 25.9375V12.5H26.0741V17.1875C26.0741 18.0505 25.4108 18.75 24.5926 18.75C23.7744 18.75 23.1111 18.0505 23.1111 17.1875V12.5H8.88889V17.1875C8.88889 18.0505 8.22563 18.75 7.40741 18.75C6.58919 18.75 5.92593 18.0505 5.92593 17.1875V12.5H2.96296V36.875H18.6667C19.4849 36.875 20.1481 37.5745 20.1481 38.4375C20.1481 39.3005 19.4849 40 18.6667 40H1.48148C0.663259 40 0 39.3005 0 38.4375V10.9375C0 10.0745 0.663259 9.375 1.48148 9.375H5.996C6.58452 4.10336 10.8461 0 16 0C21.1539 0 25.4155 4.10336 26.004 9.375H30.5185C31.3367 9.375 32 10.0745 32 10.9375ZM23.0118 9.375C22.4459 5.83242 19.5173 3.125 16 3.125C12.4827 3.125 9.55415 5.83242 8.98822 9.375H23.0118Z" fill="#198E95"/>
</svg>
