<svg width="20" height="25" viewBox="0 0 20 25" fill="none" xmlns="http://www.w3.org/2000/svg">
<path d="M20 22.0703C20 22.6097 19.5855 23.0469 19.0741 23.0469H18.1481V24.0234C18.1481 24.5628 17.7336 25 17.2222 25C16.7108 25 16.2963 24.5628 16.2963 24.0234V23.0469H15.3704C14.859 23.0469 14.4444 22.6097 14.4444 22.0703C14.4444 21.531 14.859 21.0938 15.3704 21.0938H16.2963V20.1172C16.2963 19.5778 16.7108 19.1406 17.2222 19.1406C17.7336 19.1406 18.1481 19.5778 18.1481 20.1172V21.0938H19.0741C19.5855 21.0938 20 21.531 20 22.0703ZM20 6.83594V16.2109C20 16.7503 19.5855 17.1875 19.0741 17.1875C18.5627 17.1875 18.1481 16.7503 18.1481 16.2109V7.8125H16.2963V10.7422C16.2963 11.2815 15.8818 11.7188 15.3704 11.7188C14.859 11.7188 14.4444 11.2815 14.4444 10.7422V7.8125H5.55556V10.7422C5.55556 11.2815 5.14102 11.7188 4.62963 11.7188C4.11824 11.7188 3.7037 11.2815 3.7037 10.7422V7.8125H1.85185V23.0469H11.6667C12.1781 23.0469 12.5926 23.4841 12.5926 24.0234C12.5926 24.5628 12.1781 25 11.6667 25H0.925926C0.414537 25 0 24.5628 0 24.0234V6.83594C0 6.29658 0.414537 5.85938 0.925926 5.85938H3.7475C4.11532 2.5646 6.77884 0 10 0C13.2212 0 15.8847 2.5646 16.2525 5.85938H19.0741C19.5855 5.85938 20 6.29658 20 6.83594ZM14.3824 5.85938C14.0287 3.64526 12.1983 1.95312 10 1.95312C7.80171 1.95312 5.97134 3.64526 5.61764 5.85938H14.3824Z" fill="#198E95"/>
</svg>
